<?xml version="1.0" encoding="utf-8"?>
<!-- Generator: Adobe Illustrator 27.5.0, SVG Export Plug-In . SVG Version: 6.00 Build 0)  -->
<svg version="1.1" id="Layer_1" xmlns="http://www.w3.org/2000/svg" xmlns:xlink="http://www.w3.org/1999/xlink" x="0px" y="0px"
	 viewBox="0 0 4000 4000" style="enable-background:new 0 0 4000 4000;" xml:space="preserve">
<g>
	<rect style="fill-rule:evenodd;clip-rule:evenodd;fill:#FFFFFF;" width="4000" height="4000"/>
	<g>
		<defs>
			<path id="SVGID_1_" d="M2363.932,2405.417c0,0-531.945-404.276-1086.945,19.512c0,0,115.262,62.06,218.098,154.257
				C1597.931,2671.397,2025.254,2924.957,2363.932,2405.417 M2376.334,821.987c85.115,205.676,375.898,521.281,395.415,859.955
				c19.507,338.683-267.751,576.275-267.751,576.275S1636.931,1642.956,2376.334,821.987z M2820.344,1964.248
				c0,0,183.718-237.973,31.238-617.431c-152.51-379.446-432.643-659.618-446.845-780.19c0,0-975.226,861.756-95.745,1663.214
				c0,0-528.41-414.911-1244.749,287.258c0,0,113.482-28.38,269.513,63.826c132.393,78.222,364.367,332.513,789,167.413
				c-13.422,31.833-25.775,64.012-37.095,96.497c192.675-123.988,531.61-458.906,850.091-933.671
				c-10.697,5.765-104.737,47.155-115.352,53.188L2820.344,1964.248z"/>
		</defs>
		<clipPath id="SVGID_00000060748736502634557940000001936381332306113425_">
			<use xlink:href="#SVGID_1_"  style="overflow:visible;"/>
		</clipPath>
		
			<linearGradient id="SVGID_00000071525987817450309740000003012080295302085022_" gradientUnits="userSpaceOnUse" x1="2021.7487" y1="3996.9124" x2="2044.9148" y2="-207.4241">
			<stop  offset="0" style="stop-color:#FF0000"/>
			<stop  offset="1" style="stop-color:#FFFF00"/>
		</linearGradient>
		
			<rect x="1064.243" y="566.627" style="clip-path:url(#SVGID_00000060748736502634557940000001936381332306113425_);fill:url(#SVGID_00000071525987817450309740000003012080295302085022_);" width="1939.819" height="2358.331"/>
	</g>
	<path style="fill-rule:evenodd;clip-rule:evenodd;fill:#E6E6E6;" d="M2513.484,2030.394
		c256.502-403.998,63.553-846.141-32.797-1019.768c117.85,188.902,276.803,423.955,291.062,671.315
		c19.502,338.675-267.751,576.275-267.751,576.275s-722.315-512.551-286.205-1226.239
		C1862.644,1704.529,2513.484,2030.394,2513.484,2030.394"/>
	<path style="fill-rule:evenodd;clip-rule:evenodd;fill:#E6E6E6;" d="M1358.853,2368.132
		c524.296-328.105,1005.08,37.285,1005.08,37.285c-338.678,519.54-766.001,265.98-868.846,173.768
		c-102.837-92.197-218.098-154.257-218.098-154.257c178.177,54.19,334.385,261.543,545.556,247.192
		c211.177-14.353,369.052-225.525,369.052-225.525C1750.789,2169.808,1358.853,2368.132,1358.853,2368.132"/>
	<path style="fill-rule:evenodd;clip-rule:evenodd;" d="M3048.532,3067.355v229.733h-55.96V3159.31l-51.383,137.778h-45.16
		l-51.708-138.1v138.1h-55.961v-229.733h66.105l64.469,159.047l63.818-159.047H3048.532z M2612.62,3067.355v137.447
		c0,13.743,3.384,24.327,10.148,31.743c6.765,7.417,16.692,11.127,29.783,11.127c13.087,0,23.125-3.71,30.104-11.127
		c6.983-7.417,10.47-18,10.47-31.743v-137.447h55.965v137.116c0,20.513-4.361,37.857-13.092,52.033
		c-8.727,14.183-20.452,24.875-35.178,32.075c-14.73,7.2-31.144,10.8-49.252,10.8c-18.108,0-34.308-3.548-48.6-10.635
		c-14.287-7.092-25.579-17.783-33.87-32.073c-8.29-14.292-12.438-31.687-12.438-52.2v-137.116H2612.62z M2439.504,3299.38
		c-16.795,0-31.852-2.732-45.16-8.183c-13.308-5.452-23.943-13.525-31.908-24.217c-7.965-10.691-12.162-23.562-12.6-38.618h59.56
		c0.875,8.51,3.818,15.005,8.835,19.475c5.021,4.473,11.565,6.708,19.635,6.708c8.29,0,14.838-1.908,19.638-5.727
		c4.8-3.817,7.2-9.108,7.2-15.873c0-5.67-1.908-10.365-5.73-14.07c-3.813-3.713-8.503-6.765-14.07-9.165
		c-5.565-2.4-13.474-5.13-23.725-8.181c-14.835-4.578-26.943-9.162-36.327-13.743c-9.382-4.583-17.452-11.344-24.217-20.292
		c-6.765-8.943-10.143-20.618-10.143-35.018c0-21.377,7.743-38.12,23.235-50.233c15.49-12.11,35.668-18.162,60.543-18.162
		c25.308,0,45.703,6.052,61.195,18.162c15.49,12.113,23.782,28.965,24.873,50.565h-60.543c-0.44-7.418-3.16-13.257-8.182-17.513
		c-5.018-4.252-11.453-6.378-19.31-6.378c-6.765,0-12.216,1.8-16.36,5.4c-4.148,3.6-6.217,8.778-6.217,15.543
		c0,7.417,3.487,13.2,10.469,17.348c6.983,4.143,17.891,8.617,32.726,13.417c14.833,5.018,26.892,9.818,36.165,14.395
		c9.268,4.588,17.287,11.24,24.052,19.967c6.765,8.725,10.148,19.965,10.148,33.708c0,13.087-3.332,24.982-9.988,35.668
		c-6.652,10.692-16.303,19.195-28.96,25.527C2471.682,3296.215,2456.739,3299.38,2439.504,3299.38z M2238.571,3170.11
		c10.691,0,18.652-2.508,23.886-7.525c5.24-5.019,7.857-12.11,7.857-21.27c0-9.165-2.616-16.257-7.857-21.273
		c-5.235-5.018-13.195-7.527-23.886-7.527h-30.435v57.595H2238.571z M2327.257,3141.315c0,13.308-3.057,25.47-9.16,36.487
		c-6.114,11.017-15.492,19.908-28.148,26.67c-12.652,6.765-28.362,10.147-47.127,10.147h-34.687v82.47h-55.96v-229.733h90.646
		c18.327,0,33.818,3.16,46.475,9.49c12.652,6.327,22.143,15.053,28.468,26.178
		C2324.097,3114.15,2327.257,3126.915,2327.257,3141.315z M2111.592,3067.355v229.733h-55.96v-229.733H2111.592z M2015.384,3067.355
		v229.733h-55.96V3159.31l-51.382,137.778h-45.161l-51.708-138.1v138.1h-55.96v-229.733h66.103l64.468,159.047l63.818-159.047
		H2015.384z M1634.126,3112.189v46.47h74.943v43.2h-74.943v50.395h84.76v44.835h-140.721v-229.733h140.721v44.833H1634.126z
		 M1420.753,3170.767h34.69c10.253,0,17.948-2.508,23.07-7.525c5.13-5.018,7.697-12.11,7.697-21.275
		c0-8.725-2.567-15.6-7.697-20.617c-5.122-5.018-12.817-7.527-23.07-7.527h-34.69V3170.767z M1481.953,3297.089l-47.778-86.727
		h-13.422v86.727h-55.962v-229.733h93.927c18.108,0,33.543,3.16,46.303,9.49c12.765,6.327,22.313,15,28.64,26.013
		c6.322,11.021,9.487,23.297,9.487,36.816c0,15.275-4.308,28.91-12.927,40.91c-8.617,12-21.325,20.509-38.125,25.525l53.017,90.978
		H1481.953z M1216.218,3248.329c18.327,0,33-6.11,44.018-18.332c11.017-12.217,16.525-28.36,16.525-48.43
		c0-20.292-5.508-36.491-16.525-48.6c-11.018-12.103-25.692-18.165-44.018-18.165c-18.543,0-33.325,6.005-44.343,18.005
		c-11.017,12-16.525,28.252-16.525,48.76c0,20.292,5.508,36.487,16.525,48.6C1182.893,3242.272,1197.674,3248.329,1216.218,3248.329
		z M1216.218,3299.38c-21.595,0-41.4-5.023-59.395-15.057c-18-10.03-32.292-24.052-42.873-42.052
		c-10.578-17.997-15.87-38.235-15.87-60.705c0-22.468,5.292-42.652,15.87-60.543c10.582-17.886,24.873-31.852,42.873-41.886
		c17.995-10.038,37.8-15.057,59.395-15.057c21.6,0,41.4,5.019,59.4,15.057c18,10.035,32.178,24,42.543,41.886
		c10.367,17.892,15.543,38.075,15.543,60.543c0,22.47-5.233,42.708-15.708,60.705c-10.468,18-24.652,32.022-42.543,42.052
		C1257.561,3294.357,1237.818,3299.38,1216.218,3299.38z M2649.689,3346.899h-10.385v84.538h13.645v-59.66l47.948,59.66h10.26
		v-84.538h-13.525v60.145L2649.689,3346.899z M2537.625,3401.365h-35.745l17.873-40.218L2537.625,3401.365z M2550.67,3431.437
		h14.372l-37.923-84.538h-14.735l-37.918,84.538h14.367l7.975-17.755h45.77L2550.67,3431.437z M2403.944,3357.645
		c-8.613-8.537-19.04-12.802-31.28-12.802c-13.848,0-24.718,4.327-32.608,12.982c-7.885,8.655-11.835,19.385-11.835,32.188
		c0,5.797,0.888,11.21,2.655,16.242c1.777,5.031,4.395,9.582,7.852,13.648c3.463,4.063,8.113,7.285,13.952,9.662
		c5.835,2.372,12.502,3.558,19.985,3.558c13.205,0,24.273-4.908,33.217-14.732v-34.663h-36.114v12.082h23.552v17.148
		c-5.958,4.99-12.842,7.489-20.655,7.489c-10.305,0-18.072-2.943-23.306-8.815c-5.233-5.882-7.852-13.086-7.852-21.618
		c-0.08-9.26,2.698-17.032,8.335-23.312c5.635-6.278,13.242-9.415,22.823-9.415c4.03,0,8.117,0.785,12.26,2.354
		c4.143,1.568,7.672,3.803,10.563,6.703L2403.944,3357.645z M2181.74,3389.767c0-9.495,2.637-17.225,7.914-23.187
		c5.273-5.953,12.657-8.935,22.158-8.935c6.523,0.082,12.098,1.748,16.728,5.013c4.63,3.26,7.928,7.223,9.902,11.897
		c1.975,4.667,2.958,9.741,2.958,15.212c0,8.858-2.49,16.248-7.483,22.167c-4.993,5.915-12.44,8.873-22.342,8.873
		c-4.993,0-9.445-0.903-13.347-2.717c-3.907-1.81-7.025-4.223-9.358-7.243c-2.335-3.018-4.087-6.32-5.255-9.902
		C2182.444,3397.359,2181.821,3393.632,2181.74,3389.767z M2211.813,3345.325c-12.719,0-23.145,4.167-31.277,12.5
		c-8.13,8.333-12.198,18.94-12.198,31.823c0,5.717,0.903,11.132,2.717,16.248c1.815,5.107,4.432,9.718,7.852,13.823
		c3.422,4.11,7.952,7.388,13.588,9.845c5.632,2.452,11.995,3.685,19.082,3.685c7.082,0,13.44-1.19,19.077-3.567
		c5.642-2.377,10.167-5.617,13.592-9.719c3.422-4.11,6.038-8.758,7.844-13.95c1.813-5.198,2.722-10.687,2.722-16.485
		c0-12.24-3.742-22.643-11.23-31.223C2236.086,3349.737,2225.499,3345.41,2211.813,3345.325z M2042.144,3346.899v84.538h58.087
		v-12.558h-44.56v-71.98H2042.144z M1960.634,3358.732c-5.958-9.5-16.465-14.248-31.522-14.248c-4.025,0-7.885,0.458-11.593,1.388
		c-3.705,0.922-7.167,2.315-10.385,4.168c-3.222,1.852-5.797,4.383-7.728,7.605c-1.933,3.223-2.897,6.927-2.897,11.112
		c0,3.463,0.618,6.54,1.872,9.237c1.247,2.698,2.815,4.895,4.71,6.587c1.89,1.687,4.365,3.136,7.427,4.347
		c3.062,1.203,5.977,2.135,8.753,2.773c2.778,0.647,6.1,1.208,9.965,1.695c6.765,0.883,12.057,2.353,15.883,4.403
		c3.822,2.055,5.735,5.217,5.735,9.482c0,3.303-1.105,6.057-3.322,8.273c-2.215,2.215-4.852,3.727-7.913,4.53
		c-3.057,0.803-6.438,1.205-10.143,1.205c-12.075,0-20.848-4.625-26.328-13.885l-10.143,6.76
		c6.925,12.803,19.043,19.205,36.35,19.205c6.283,0,11.938-0.827,16.97-2.48c5.032-1.648,9.297-4.483,12.803-8.508
		c3.5-4.03,5.248-9.062,5.248-15.1c0-4.507-0.903-8.395-2.717-11.65c-1.81-3.265-4.445-5.84-7.908-7.733
		c-3.463-1.89-6.965-3.317-10.503-4.285c-3.548-0.969-7.813-1.815-12.803-2.539c-6.685-0.963-11.777-2.295-15.278-3.982
		c-3.5-1.697-5.253-4.39-5.253-8.093c0-3.945,1.815-7.063,5.433-9.358c3.623-2.297,8.333-3.445,14.13-3.445
		c4.427,0.08,8.513,0.945,12.26,2.598c3.742,1.65,6.62,3.927,8.632,6.822L1960.634,3358.732z M1789.634,3359.215
		c5.235,0,9.217,1.548,11.957,4.648c2.74,3.098,4.107,6.747,4.107,10.932c0,4.267-1.367,7.848-4.107,10.748
		c-2.74,2.9-6.76,4.346-12.075,4.346h-25.725v-30.675H1789.634z M1821.759,3429.022l-25.242-28.143
		c7.813-1.124,13.587-4.123,17.333-8.995c3.747-4.87,5.618-10.648,5.618-17.328c0-7.57-2.637-14.07-7.913-19.503
		c-5.273-5.437-12.577-8.153-21.922-8.153c-4.342,0-10.908-0.025-19.687-0.062c-8.773-0.043-15.335-0.062-19.682-0.062v84.662
		h13.525v-29.225h17.873l25.723,29.225h15.823L1821.759,3429.022z M1654.148,3347.02v49.395c0,7.885-2.178,13.988-6.525,18.297
		c-4.347,4.303-9.982,6.255-16.908,5.853c-6.44-0.24-11.632-2.452-15.577-6.642c-3.945-4.187-5.915-10.025-5.915-17.508v-49.395
		h-13.412v49.395c0,11.432,3.325,20.328,9.968,26.687c6.642,6.365,14.952,9.662,24.935,9.904c10.71,0.402,19.527-2.598,26.452-9
		c6.922-6.397,10.385-15.595,10.385-27.59v-49.395H1654.148z M1445.229,3389.767c0-9.495,2.637-17.225,7.908-23.187
		c5.273-5.953,12.662-8.935,22.162-8.935c6.52,0.082,12.095,1.748,16.73,5.013c4.625,3.26,7.927,7.223,9.902,11.897
		c1.97,4.667,2.958,9.741,2.958,15.212c0,8.858-2.495,16.248-7.488,22.167c-4.988,5.915-12.44,8.873-22.342,8.873
		c-4.993,0-9.445-0.903-13.347-2.717c-3.902-1.81-7.025-4.223-9.358-7.243c-2.335-3.018-4.087-6.32-5.255-9.902
		C1445.928,3397.359,1445.309,3393.632,1445.229,3389.767z M1475.299,3345.325c-12.722,0-23.143,4.167-31.28,12.5
		c-8.13,8.333-12.198,18.94-12.198,31.823c0,5.717,0.907,11.132,2.717,16.248c1.815,5.107,4.432,9.718,7.852,13.823
		c3.422,4.11,7.952,7.388,13.588,9.845c5.637,2.452,11.995,3.685,19.082,3.685c7.087,0,13.44-1.19,19.077-3.567
		c5.642-2.377,10.167-5.617,13.592-9.719c3.422-4.11,6.038-8.758,7.848-13.95c1.808-5.198,2.717-10.687,2.717-16.485
		c0-12.24-3.742-22.643-11.23-31.223C1499.574,3349.737,1488.986,3345.41,1475.299,3345.325z M1304.909,3346.899h-16.067v0.603
		l32.607,49.277v34.658h13.532v-34.658l33.572-49.277v-0.603h-16.305l-24.033,37.316L1304.909,3346.899z M1007.428,3253.889h73.308
		v43.2H951.468v-229.733h55.96V3253.889z"/>
</g>
</svg>
